<mxfile host="drawio-plugin" modified="2022-01-03T09:41:43.546Z" agent="5.0 (Macintosh; Intel Mac OS X 12_1_0) AppleWebKit/537.36 (KHTML, like Gecko) Chrome/89.0.4389.114 Safari/537.36" etag="q-IOjF_-YHMFq4nNsFuC" version="15.5.4" type="embed"><diagram id="5Fnp3Gp36UUL6kzFWkRc" name="Page-1"><mxGraphModel dx="1034" dy="608" grid="1" gridSize="10" guides="1" tooltips="1" connect="1" arrows="1" fold="1" page="1" pageScale="1" pageWidth="850" pageHeight="1100" math="0" shadow="0"><root><mxCell id="0"/><mxCell id="1" parent="0"/><mxCell id="3" value="" style="group" vertex="1" connectable="0" parent="1"><mxGeometry x="120" y="39" width="690" height="650" as="geometry"/></mxCell><mxCell id="2" value="" style="rounded=0;whiteSpace=wrap;html=1;" vertex="1" parent="3"><mxGeometry width="690" height="650" as="geometry"/></mxCell><mxCell id="Mdlwy4bTj_w66hoR8pJX-1" value="VPC(172.0.0.0/20)" style="shape=mxgraph.ibm.box;prType=vpc;fontStyle=0;verticalAlign=top;align=left;spacingLeft=32;spacingTop=4;fillColor=none;rounded=0;whiteSpace=wrap;html=1;strokeColor=#4376BB;strokeWidth=2;dashed=0;container=1;spacing=-4;collapsible=0;expand=0;recursiveResize=0;" parent="3" vertex="1"><mxGeometry x="70" y="330" width="580" height="290" as="geometry"/></mxCell><mxCell id="Mdlwy4bTj_w66hoR8pJX-6" value="Availability Zone(us-east-1a)" style="fillColor=none;strokeColor=#147EBA;dashed=1;verticalAlign=top;fontStyle=0;fontColor=#147EBA;" parent="Mdlwy4bTj_w66hoR8pJX-1" vertex="1"><mxGeometry x="20" y="30" width="270" height="230" as="geometry"/></mxCell><mxCell id="E6n8bj3mth_TUjgBILko-22" style="edgeStyle=orthogonalEdgeStyle;rounded=0;orthogonalLoop=1;jettySize=auto;html=1;" parent="Mdlwy4bTj_w66hoR8pJX-1" source="E6n8bj3mth_TUjgBILko-2" target="E6n8bj3mth_TUjgBILko-7" edge="1"><mxGeometry relative="1" as="geometry"/></mxCell><mxCell id="E6n8bj3mth_TUjgBILko-2" value="Public subnet(10.0.0.0/24)" style="points=[[0,0],[0.25,0],[0.5,0],[0.75,0],[1,0],[1,0.25],[1,0.5],[1,0.75],[1,1],[0.75,1],[0.5,1],[0.25,1],[0,1],[0,0.75],[0,0.5],[0,0.25]];outlineConnect=0;gradientColor=none;html=1;whiteSpace=wrap;fontSize=12;fontStyle=0;container=1;pointerEvents=0;collapsible=0;recursiveResize=0;shape=mxgraph.aws4.group;grIcon=mxgraph.aws4.group_security_group;grStroke=0;strokeColor=#248814;fillColor=#E9F3E6;verticalAlign=top;align=left;spacingLeft=30;fontColor=#248814;dashed=0;" parent="Mdlwy4bTj_w66hoR8pJX-1" vertex="1"><mxGeometry x="60" y="70" width="200" height="160" as="geometry"/></mxCell><mxCell id="E6n8bj3mth_TUjgBILko-3" value="10.0.0.23&lt;br&gt;54.12.9.342" style="sketch=0;outlineConnect=0;fontColor=#232F3E;gradientColor=none;strokeColor=#ffffff;fillColor=#232F3E;dashed=0;verticalLabelPosition=middle;verticalAlign=bottom;align=center;html=1;whiteSpace=wrap;fontSize=10;fontStyle=1;spacing=3;shape=mxgraph.aws4.productIcon;prIcon=mxgraph.aws4.ec2;" parent="Mdlwy4bTj_w66hoR8pJX-1" vertex="1"><mxGeometry x="115" y="100" width="80" height="110" as="geometry"/></mxCell><mxCell id="E6n8bj3mth_TUjgBILko-7" value="Public Rote Table" style="shape=table;startSize=30;container=1;collapsible=0;childLayout=tableLayout;fontStyle=1;align=center;" parent="Mdlwy4bTj_w66hoR8pJX-1" vertex="1"><mxGeometry x="330" y="75" width="180" height="150" as="geometry"/></mxCell><mxCell id="E6n8bj3mth_TUjgBILko-8" value="" style="shape=tableRow;horizontal=0;startSize=0;swimlaneHead=0;swimlaneBody=0;top=0;left=0;bottom=0;right=0;collapsible=0;dropTarget=0;fillColor=none;points=[[0,0.5],[1,0.5]];portConstraint=eastwest;" parent="E6n8bj3mth_TUjgBILko-7" vertex="1"><mxGeometry y="30" width="180" height="40" as="geometry"/></mxCell><mxCell id="E6n8bj3mth_TUjgBILko-9" value="1" style="shape=partialRectangle;html=1;whiteSpace=wrap;connectable=0;fillColor=none;top=0;left=0;bottom=0;right=0;overflow=hidden;" parent="E6n8bj3mth_TUjgBILko-8" vertex="1"><mxGeometry width="40" height="40" as="geometry"><mxRectangle width="40" height="40" as="alternateBounds"/></mxGeometry></mxCell><mxCell id="E6n8bj3mth_TUjgBILko-10" value="10.0.0.0/24" style="shape=partialRectangle;html=1;whiteSpace=wrap;connectable=0;fillColor=none;top=0;left=0;bottom=0;right=0;overflow=hidden;" parent="E6n8bj3mth_TUjgBILko-8" vertex="1"><mxGeometry x="40" width="80" height="40" as="geometry"><mxRectangle width="80" height="40" as="alternateBounds"/></mxGeometry></mxCell><mxCell id="E6n8bj3mth_TUjgBILko-11" value="local" style="shape=partialRectangle;html=1;whiteSpace=wrap;connectable=0;fillColor=none;top=0;left=0;bottom=0;right=0;overflow=hidden;" parent="E6n8bj3mth_TUjgBILko-8" vertex="1"><mxGeometry x="120" width="60" height="40" as="geometry"><mxRectangle width="60" height="40" as="alternateBounds"/></mxGeometry></mxCell><mxCell id="E6n8bj3mth_TUjgBILko-12" value="" style="shape=tableRow;horizontal=0;startSize=0;swimlaneHead=0;swimlaneBody=0;top=0;left=0;bottom=0;right=0;collapsible=0;dropTarget=0;fillColor=none;points=[[0,0.5],[1,0.5]];portConstraint=eastwest;" parent="E6n8bj3mth_TUjgBILko-7" vertex="1"><mxGeometry y="70" width="180" height="40" as="geometry"/></mxCell><mxCell id="E6n8bj3mth_TUjgBILko-13" value="2" style="shape=partialRectangle;html=1;whiteSpace=wrap;connectable=0;fillColor=none;top=0;left=0;bottom=0;right=0;overflow=hidden;" parent="E6n8bj3mth_TUjgBILko-12" vertex="1"><mxGeometry width="40" height="40" as="geometry"><mxRectangle width="40" height="40" as="alternateBounds"/></mxGeometry></mxCell><mxCell id="E6n8bj3mth_TUjgBILko-14" value="0.0.0.0/0" style="shape=partialRectangle;html=1;whiteSpace=wrap;connectable=0;fillColor=none;top=0;left=0;bottom=0;right=0;overflow=hidden;" parent="E6n8bj3mth_TUjgBILko-12" vertex="1"><mxGeometry x="40" width="80" height="40" as="geometry"><mxRectangle width="80" height="40" as="alternateBounds"/></mxGeometry></mxCell><mxCell id="E6n8bj3mth_TUjgBILko-15" value="IGW" style="shape=partialRectangle;html=1;whiteSpace=wrap;connectable=0;fillColor=none;top=0;left=0;bottom=0;right=0;overflow=hidden;" parent="E6n8bj3mth_TUjgBILko-12" vertex="1"><mxGeometry x="120" width="60" height="40" as="geometry"><mxRectangle width="60" height="40" as="alternateBounds"/></mxGeometry></mxCell><mxCell id="E6n8bj3mth_TUjgBILko-16" value="" style="shape=tableRow;horizontal=0;startSize=0;swimlaneHead=0;swimlaneBody=0;top=0;left=0;bottom=0;right=0;collapsible=0;dropTarget=0;fillColor=none;points=[[0,0.5],[1,0.5]];portConstraint=eastwest;" parent="E6n8bj3mth_TUjgBILko-7" vertex="1"><mxGeometry y="110" width="180" height="40" as="geometry"/></mxCell><mxCell id="E6n8bj3mth_TUjgBILko-17" value="" style="shape=partialRectangle;html=1;whiteSpace=wrap;connectable=0;fillColor=none;top=0;left=0;bottom=0;right=0;overflow=hidden;" parent="E6n8bj3mth_TUjgBILko-16" vertex="1"><mxGeometry width="40" height="40" as="geometry"><mxRectangle width="40" height="40" as="alternateBounds"/></mxGeometry></mxCell><mxCell id="E6n8bj3mth_TUjgBILko-18" value="" style="shape=partialRectangle;html=1;whiteSpace=wrap;connectable=0;fillColor=none;top=0;left=0;bottom=0;right=0;overflow=hidden;" parent="E6n8bj3mth_TUjgBILko-16" vertex="1"><mxGeometry x="40" width="80" height="40" as="geometry"><mxRectangle width="80" height="40" as="alternateBounds"/></mxGeometry></mxCell><mxCell id="E6n8bj3mth_TUjgBILko-19" value="" style="shape=partialRectangle;html=1;whiteSpace=wrap;connectable=0;fillColor=none;top=0;left=0;bottom=0;right=0;overflow=hidden;" parent="E6n8bj3mth_TUjgBILko-16" vertex="1"><mxGeometry x="120" width="60" height="40" as="geometry"><mxRectangle width="60" height="40" as="alternateBounds"/></mxGeometry></mxCell><mxCell id="Mdlwy4bTj_w66hoR8pJX-2" value="Region(us-east-1)" style="points=[[0,0],[0.25,0],[0.5,0],[0.75,0],[1,0],[1,0.25],[1,0.5],[1,0.75],[1,1],[0.75,1],[0.5,1],[0.25,1],[0,1],[0,0.75],[0,0.5],[0,0.25]];outlineConnect=0;gradientColor=none;html=1;whiteSpace=wrap;fontSize=12;fontStyle=0;container=1;pointerEvents=0;collapsible=0;recursiveResize=0;shape=mxgraph.aws4.group;grIcon=mxgraph.aws4.group_region;strokeColor=#147EBA;fillColor=none;verticalAlign=top;align=left;spacingLeft=30;fontColor=#147EBA;dashed=1;" parent="3" vertex="1"><mxGeometry x="30" y="170" width="630" height="470" as="geometry"/></mxCell><mxCell id="Mdlwy4bTj_w66hoR8pJX-5" value="" style="sketch=0;outlineConnect=0;fontColor=#232F3E;gradientColor=none;fillColor=#4D27AA;strokeColor=none;dashed=0;verticalLabelPosition=bottom;verticalAlign=top;align=center;html=1;fontSize=12;fontStyle=0;aspect=fixed;pointerEvents=1;shape=mxgraph.aws4.internet_gateway;" parent="Mdlwy4bTj_w66hoR8pJX-2" vertex="1"><mxGeometry x="295" y="20" width="70" height="70" as="geometry"/></mxCell><mxCell id="E6n8bj3mth_TUjgBILko-4" style="edgeStyle=orthogonalEdgeStyle;rounded=0;orthogonalLoop=1;jettySize=auto;html=1;" parent="3" source="Mdlwy4bTj_w66hoR8pJX-3" target="Mdlwy4bTj_w66hoR8pJX-5" edge="1"><mxGeometry relative="1" as="geometry"/></mxCell><mxCell id="Mdlwy4bTj_w66hoR8pJX-3" value="" style="sketch=0;outlineConnect=0;fontColor=#232F3E;gradientColor=none;fillColor=#232F3D;strokeColor=none;dashed=0;verticalLabelPosition=bottom;verticalAlign=top;align=center;html=1;fontSize=12;fontStyle=0;aspect=fixed;pointerEvents=1;shape=mxgraph.aws4.internet_alt22;" parent="3" vertex="1"><mxGeometry x="321" y="30" width="78" height="78" as="geometry"/></mxCell><mxCell id="E6n8bj3mth_TUjgBILko-5" style="edgeStyle=orthogonalEdgeStyle;rounded=0;orthogonalLoop=1;jettySize=auto;html=1;" parent="3" source="Mdlwy4bTj_w66hoR8pJX-5" target="Mdlwy4bTj_w66hoR8pJX-1" edge="1"><mxGeometry relative="1" as="geometry"/></mxCell></root></mxGraphModel></diagram></mxfile>